<?xml version="1.0" encoding="utf-8"?>
<!-- Generator: Adobe Illustrator 26.0.1, SVG Export Plug-In . SVG Version: 6.00 Build 0)  -->
<svg version="1.1" id="seamless_pattern" xmlns="http://www.w3.org/2000/svg" xmlns:xlink="http://www.w3.org/1999/xlink" x="0px"
	 y="0px" viewBox="0 0 480 270" style="enable-background:new 0 0 480 270;" xml:space="preserve">
<style type="text/css">
	.st0{opacity:0.1;clip-path:url(#SVGID_00000152980550591857427620000015532317776066308509_);fill:#000C56;}
	.st1{opacity:0.1;clip-path:url(#SVGID_00000152980550591857427620000015532317776066308509_);}
	.st2{clip-path:url(#SVGID_00000152980550591857427620000015532317776066308509_);fill:#FF2E34;}
	.st3{opacity:0.1;clip-path:url(#SVGID_00000152980550591857427620000015532317776066308509_);fill:#0024FF;}
	.st4{clip-path:url(#SVGID_00000152980550591857427620000015532317776066308509_);fill:#FF0D14;}
	.st5{opacity:0.1;clip-path:url(#SVGID_00000152980550591857427620000015532317776066308509_);fill:#00020E;}
	.st6{clip-path:url(#SVGID_00000152980550591857427620000015532317776066308509_);fill:#BF360A;}
	.st7{clip-path:url(#SVGID_00000152980550591857427620000015532317776066308509_);fill:#C73669;}
	.st8{clip-path:url(#SVGID_00000152980550591857427620000015532317776066308509_);fill:#FF0007;}
	.st9{opacity:0.1;clip-path:url(#SVGID_00000152980550591857427620000015532317776066308509_);fill:#00127B;}
	.st10{clip-path:url(#SVGID_00000152980550591857427620000015532317776066308509_);fill:#FF450A;}
	.st11{clip-path:url(#SVGID_00000152980550591857427620000015532317776066308509_);fill:#FF689C;}
	.st12{clip-path:url(#SVGID_00000152980550591857427620000015532317776066308509_);fill:#B21C20;}
	.st13{opacity:0.1;clip-path:url(#SVGID_00000152980550591857427620000015532317776066308509_);fill:#4657B9;}
	.st14{clip-path:url(#SVGID_00000152980550591857427620000015532317776066308509_);fill:#370D00;}
	.st15{clip-path:url(#SVGID_00000152980550591857427620000015532317776066308509_);fill:#17176A;}
	.st16{opacity:0.1;clip-path:url(#SVGID_00000152980550591857427620000015532317776066308509_);fill:#000A47;}
	.st17{clip-path:url(#SVGID_00000152980550591857427620000015532317776066308509_);fill:#340F1C;}
	.st18{clip-path:url(#SVGID_00000152980550591857427620000015532317776066308509_);fill:#03033C;}
	.st19{clip-path:url(#SVGID_00000152980550591857427620000015532317776066308509_);fill:#0000D1;}
	.st20{opacity:0.1;clip-path:url(#SVGID_00000152980550591857427620000015532317776066308509_);fill:#000C54;}
	.st21{clip-path:url(#SVGID_00000152980550591857427620000015532317776066308509_);fill:#210800;}
	.st22{clip-path:url(#SVGID_00000152980550591857427620000015532317776066308509_);fill:#370013;}
	.st23{clip-path:url(#SVGID_00000152980550591857427620000015532317776066308509_);fill:#FF3D00;}
	.st24{clip-path:url(#SVGID_00000152980550591857427620000015532317776066308509_);fill:#FB5A92;}
	.st25{clip-path:url(#SVGID_00000152980550591857427620000015532317776066308509_);fill:#3D3DF0;}
	.st26{clip-path:url(#SVGID_00000152980550591857427620000015532317776066308509_);fill:#5A1904;}
	.st27{clip-path:url(#SVGID_00000152980550591857427620000015532317776066308509_);}
	.st28{clip-path:url(#SVGID_00000152980550591857427620000015532317776066308509_);fill:#1D0001;}
	.st29{clip-path:url(#SVGID_00000152980550591857427620000015532317776066308509_);fill:#FF8660;}
	.st30{clip-path:url(#SVGID_00000152980550591857427620000015532317776066308509_);fill:#752440;}
	.st31{clip-path:url(#SVGID_00000152980550591857427620000015532317776066308509_);fill:#0000FF;}
	.st32{clip-path:url(#SVGID_00000152980550591857427620000015532317776066308509_);fill:#FF030A;}
	.st33{opacity:0.1;clip-path:url(#SVGID_00000152980550591857427620000015532317776066308509_);fill:#070A1A;}
	.st34{clip-path:url(#SVGID_00000152980550591857427620000015532317776066308509_);fill:#6C1A00;}
	.st35{clip-path:url(#SVGID_00000152980550591857427620000015532317776066308509_);fill:#B22C5B;}
	.st36{clip-path:url(#SVGID_00000152980550591857427620000015532317776066308509_);fill:#FF494E;}
	.st37{clip-path:url(#SVGID_00000152980550591857427620000015532317776066308509_);fill:#2D0513;}
	.st38{clip-path:url(#SVGID_00000152980550591857427620000015532317776066308509_);fill:#0909FF;}
	.st39{clip-path:url(#SVGID_00000152980550591857427620000015532317776066308509_);fill:#FF6399;}
	.st40{clip-path:url(#SVGID_00000152980550591857427620000015532317776066308509_);fill:#1515C2;}
	.st41{clip-path:url(#SVGID_00000152980550591857427620000015532317776066308509_);fill:#F23A00;}
	.st42{clip-path:url(#SVGID_00000152980550591857427620000015532317776066308509_);fill:#C40044;}
	.st43{clip-path:url(#SVGID_00000152980550591857427620000015532317776066308509_);fill:#FF4A89;}
	.st44{clip-path:url(#SVGID_00000152980550591857427620000015532317776066308509_);fill:#350204;}
	.st45{opacity:0.1;clip-path:url(#SVGID_00000152980550591857427620000015532317776066308509_);fill:#0020E0;}
	.st46{opacity:0.1;clip-path:url(#SVGID_00000152980550591857427620000015532317776066308509_);fill:#2B3367;}
	.st47{clip-path:url(#SVGID_00000152980550591857427620000015532317776066308509_);fill:#4848FF;}
	.st48{clip-path:url(#SVGID_00000152980550591857427620000015532317776066308509_);fill:#FF397D;}
	.st49{clip-path:url(#SVGID_00000152980550591857427620000015532317776066308509_);fill:#760C0F;}
	.st50{clip-path:url(#SVGID_00000152980550591857427620000015532317776066308509_);fill:#753E2C;}
	.st51{clip-path:url(#SVGID_00000152980550591857427620000015532317776066308509_);fill:#FF5358;}
	.st52{clip-path:url(#SVGID_00000152980550591857427620000015532317776066308509_);fill:#4B1200;}
	.st53{clip-path:url(#SVGID_00000152980550591857427620000015532317776066308509_);fill:#FF6A9E;}
	.st54{clip-path:url(#SVGID_00000152980550591857427620000015532317776066308509_);fill:#570002;}
	.st55{clip-path:url(#SVGID_00000152980550591857427620000015532317776066308509_);fill:#FF4B12;}
	.st56{clip-path:url(#SVGID_00000152980550591857427620000015532317776066308509_);fill:#470002;}
	.st57{clip-path:url(#SVGID_00000152980550591857427620000015532317776066308509_);fill:#270900;}
	.st58{clip-path:url(#SVGID_00000152980550591857427620000015532317776066308509_);fill:#FF4B89;}
	.st59{clip-path:url(#SVGID_00000152980550591857427620000015532317776066308509_);fill:#0000B4;}
	.st60{clip-path:url(#SVGID_00000152980550591857427620000015532317776066308509_);fill:#FF6F73;}
	.st61{clip-path:url(#SVGID_00000152980550591857427620000015532317776066308509_);fill:#FF7F56;}
	.st62{clip-path:url(#SVGID_00000152980550591857427620000015532317776066308509_);fill:#FF1164;}
	.st63{clip-path:url(#SVGID_00000152980550591857427620000015532317776066308509_);fill:#FF2D32;}
</style>
<g>
	<defs>
		<rect id="SVGID_1_" width="480" height="270"/>
	</defs>
	<use xlink:href="#SVGID_1_"  style="overflow:visible;fill:#0E0018;"/>
	<clipPath id="SVGID_00000134242396259479886690000017921722512350167200_">
		<use xlink:href="#SVGID_1_"  style="overflow:visible;"/>
	</clipPath>
	
		<rect x="-323.66" y="-237.56" transform="matrix(0.866 -0.5 0.5 0.866 41.0248 -104.0425)" style="opacity:0.1;clip-path:url(#SVGID_00000134242396259479886690000017921722512350167200_);fill:#000C56;" width="300.05" height="217.96"/>
	
		<rect x="-115.28" y="-207.34" transform="matrix(0.866 -0.5 0.5 0.866 52.4627 -1.3834)" style="opacity:0.1;clip-path:url(#SVGID_00000134242396259479886690000017921722512350167200_);" width="277.85" height="217.5"/>
	<path style="clip-path:url(#SVGID_00000134242396259479886690000017921722512350167200_);fill:#FF2E34;" d="M7.73-29.45
		l-98.78,57.03l0.22,0.37L7.95-29.07L7.73-29.45z M-104.75,37.15l98.78-57.03l0.22,0.37l-98.78,57.03L-104.75,37.15z M-19.67-10.3
		l-98.78,57.03l0.22,0.37l98.78-57.03L-19.67-10.3z"/>
	
		<rect x="-92.31" y="-89.19" transform="matrix(0.866 -0.5 0.5 0.866 39.7589 23.4042)" style="opacity:0.1;clip-path:url(#SVGID_00000134242396259479886690000017921722512350167200_);fill:#0024FF;" width="311.72" height="53.41"/>
	<path style="clip-path:url(#SVGID_00000134242396259479886690000017921722512350167200_);fill:#FF0D14;" d="M171.14-79.06
		L60.5-15.18l0.53,0.92l110.64-63.88L171.14-79.06z M46.11-2.8l110.64-63.88l0.53,0.92L46.64-1.88L46.11-2.8z M142.36-54.3
		L31.73,9.58l0.53,0.92l110.64-63.88L142.36-54.3z"/>
	
		<rect x="58.62" y="-182.36" transform="matrix(0.866 -0.5 0.5 0.866 89.6812 100.9373)" style="opacity:0.1;clip-path:url(#SVGID_00000134242396259479886690000017921722512350167200_);fill:#00020E;" width="349.15" height="130.96"/>
	
		<rect x="212.79" y="135.85" transform="matrix(0.866 -0.5 0.5 0.866 -40.62 126.5677)" style="clip-path:url(#SVGID_00000134242396259479886690000017921722512350167200_);fill:#BF360A;" width="6.16" height="6.47"/>
	
		<rect x="134.39" y="49.37" transform="matrix(0.866 -0.5 0.5 0.866 -7.8841 75.7847)" style="clip-path:url(#SVGID_00000134242396259479886690000017921722512350167200_);fill:#C73669;" width="6.16" height="6.47"/>
	<path style="clip-path:url(#SVGID_00000134242396259479886690000017921722512350167200_);fill:#FF0007;" d="M163.11,66.18
		l12.39-7.16l-0.73-1.26l-12.39,7.16L163.11,66.18z M174.89,53.79l-12.39,7.16l-0.73-1.26l12.39-7.16L174.89,53.79z M161.89,55.72
		l12.39-7.16l-0.73-1.26l-12.39,7.16L161.89,55.72z"/>
	
		<rect x="137.68" y="-17.41" transform="matrix(0.866 -0.5 0.5 0.866 -15.0832 88.3057)" style="opacity:0.1;clip-path:url(#SVGID_00000134242396259479886690000017921722512350167200_);fill:#00127B;" width="39.12" height="179.41"/>
	
		<rect x="100.51" y="160.52" transform="matrix(0.866 -0.5 0.5 0.866 -67.1781 77.908)" style="clip-path:url(#SVGID_00000134242396259479886690000017921722512350167200_);fill:#FF450A;" width="22.56" height="7.58"/>
	
		<rect x="111.77" y="-0.46" transform="matrix(0.866 -0.5 0.5 0.866 14.8201 61.9714)" style="clip-path:url(#SVGID_00000134242396259479886690000017921722512350167200_);fill:#FF689C;" width="22.56" height="7.58"/>
	<path style="clip-path:url(#SVGID_00000134242396259479886690000017921722512350167200_);fill:#B21C20;" d="M88.61,56.49
		L43.25,82.68l-0.85-1.47l45.37-26.19L88.61,56.49z M33.79,81.59L79.16,55.4l-0.85-1.47L32.94,80.12L33.79,81.59z M69.7,54.32
		L24.33,80.51l-0.85-1.47l45.37-26.19L69.7,54.32z"/>
	
		<rect x="44.21" y="-61.19" transform="matrix(0.866 -0.5 0.5 0.866 -6.4815 63.7933)" style="opacity:0.1;clip-path:url(#SVGID_00000134242396259479886690000017921722512350167200_);fill:#4657B9;" width="143.17" height="210.37"/>
	
		<rect x="220.18" y="25.87" transform="matrix(0.866 -0.5 0.5 0.866 17.7659 125.9024)" style="clip-path:url(#SVGID_00000134242396259479886690000017921722512350167200_);fill:#370D00;" width="47.28" height="7.85"/>
	
		<rect x="156.34" y="-237.56" transform="matrix(0.866 -0.5 0.5 0.866 105.3326 135.9575)" style="opacity:0.1;clip-path:url(#SVGID_00000134242396259479886690000017921722512350167200_);fill:#000C56;" width="300.05" height="217.96"/>
	
		<rect x="398.36" y="89.83" transform="matrix(0.866 -0.5 0.5 0.866 9.4277 222.6849)" style="clip-path:url(#SVGID_00000134242396259479886690000017921722512350167200_);fill:#17176A;" width="43.78" height="7.84"/>
	
		<rect x="364.72" y="-207.34" transform="matrix(0.866 -0.5 0.5 0.866 116.7705 238.6167)" style="opacity:0.1;clip-path:url(#SVGID_00000134242396259479886690000017921722512350167200_);" width="277.85" height="217.5"/>
	<path style="clip-path:url(#SVGID_00000134242396259479886690000017921722512350167200_);fill:#FF2E34;" d="M487.73-29.45
		l-98.78,57.03l0.22,0.37l98.78-57.03L487.73-29.45z M375.25,37.15l98.78-57.03l0.22,0.37l-98.78,57.03L375.25,37.15z M460.33-10.3
		l-98.78,57.03l0.22,0.37l98.78-57.03L460.33-10.3z"/>
	
		<rect x="387.69" y="-89.19" transform="matrix(0.866 -0.5 0.5 0.866 104.0667 263.4043)" style="opacity:0.1;clip-path:url(#SVGID_00000134242396259479886690000017921722512350167200_);fill:#0024FF;" width="311.72" height="53.41"/>
	
		<rect x="-308.67" y="-11.74" transform="matrix(0.866 -0.5 0.5 0.866 -14.1223 -71.2712)" style="opacity:0.1;clip-path:url(#SVGID_00000134242396259479886690000017921722512350167200_);fill:#000A47;" width="337.22" height="4.92"/>
	
		<rect x="-323.66" y="32.44" transform="matrix(0.866 -0.5 0.5 0.866 -93.9751 -67.8694)" style="opacity:0.1;clip-path:url(#SVGID_00000134242396259479886690000017921722512350167200_);fill:#000C56;" width="300.05" height="217.96"/>
	
		<rect x="34.94" y="114.86" transform="matrix(0.866 -0.5 0.5 0.866 -50.5657 45.24)" style="clip-path:url(#SVGID_00000134242396259479886690000017921722512350167200_);fill:#340F1C;" width="48.39" height="4.23"/>
	
		<rect x="171.58" y="93.47" transform="matrix(0.866 -0.5 0.5 0.866 -21.5621 110.6941)" style="clip-path:url(#SVGID_00000134242396259479886690000017921722512350167200_);fill:#03033C;" width="48.39" height="4.23"/>
	
		<rect x="-152.64" y="71.52" transform="matrix(0.866 -0.5 0.5 0.866 -65.0005 17.8954)" style="opacity:0.1;clip-path:url(#SVGID_00000134242396259479886690000017921722512350167200_);" width="307.07" height="117.45"/>
	
		<rect x="64.12" y="129.22" transform="matrix(0.866 -0.5 0.5 0.866 -54.8745 58.9236)" style="clip-path:url(#SVGID_00000134242396259479886690000017921722512350167200_);fill:#0000D1;" width="36.79" height="5.28"/>
	
		<rect x="-198.79" y="56.62" transform="matrix(0.866 -0.5 0.5 0.866 -75.9032 -23.632)" style="opacity:0.1;clip-path:url(#SVGID_00000134242396259479886690000017921722512350167200_);fill:#000C54;" width="233.47" height="146.4"/>
	
		<rect x="116.33" y="152.29" transform="matrix(0.866 -0.5 0.5 0.866 -61.6032 81.1982)" style="clip-path:url(#SVGID_00000134242396259479886690000017921722512350167200_);fill:#210800;" width="8.77" height="6.52"/>
	
		<rect x="89.19" y="35.15" transform="matrix(0.866 -0.5 0.5 0.866 -6.6682 51.9352)" style="clip-path:url(#SVGID_00000134242396259479886690000017921722512350167200_);fill:#370013;" width="8.77" height="6.52"/>
	<path style="clip-path:url(#SVGID_00000134242396259479886690000017921722512350167200_);fill:#FF0007;" d="M86.98,70.82L69.35,81
		l-0.73-1.27l17.63-10.18L86.98,70.82z M64.34,78.27l17.63-10.18l-0.73-1.27L63.61,77L64.34,78.27z M76.96,65.36L59.33,75.53
		l-0.73-1.27l17.63-10.18L76.96,65.36z"/>
	
		<rect x="70.38" y="-23.33" transform="matrix(0.866 -0.5 0.5 0.866 -20.3932 58.0902)" style="opacity:0.1;clip-path:url(#SVGID_00000134242396259479886690000017921722512350167200_);" width="55.64" height="180.86"/>
	
		<rect x="60.1" y="13.65" transform="matrix(0.866 -0.5 0.5 0.866 2.1614 40.2021)" style="clip-path:url(#SVGID_00000134242396259479886690000017921722512350167200_);fill:#FF3D00;" width="32" height="4.83"/>
	
		<rect x="213.54" y="23.43" transform="matrix(0.866 -0.5 0.5 0.866 17.8305 118.2289)" style="clip-path:url(#SVGID_00000134242396259479886690000017921722512350167200_);fill:#FB5A92;" width="32" height="4.83"/>
	
		<rect x="315.83" y="29.95" transform="matrix(0.866 -0.5 0.5 0.866 28.2765 170.247)" style="clip-path:url(#SVGID_00000134242396259479886690000017921722512350167200_);fill:#3D3DF0;" width="32" height="4.83"/>
	<path style="clip-path:url(#SVGID_00000134242396259479886690000017921722512350167200_);fill:#FF0007;" d="M151.08,49.95
		L86.74,87.1l0.54,0.94l64.35-37.15L151.08,49.95z M79.15,95.65l64.35-37.15l0.54,0.94L79.69,96.59L79.15,95.65z M135.9,67.05
		L71.56,104.2l0.54,0.94l64.35-37.15L135.9,67.05z"/>
	
		<rect x="85.26" y="-39.68" transform="matrix(0.866 -0.5 0.5 0.866 11.3781 97.0533)" style="opacity:0.1;clip-path:url(#SVGID_00000134242396259479886690000017921722512350167200_);" width="203.06" height="133.95"/>
	
		<rect x="333.73" y="-68.16" transform="matrix(0.866 -0.5 0.5 0.866 62.623 179.1378)" style="opacity:0.1;clip-path:url(#SVGID_00000134242396259479886690000017921722512350167200_);fill:#0024FF;" width="63.72" height="81.74"/>
	
		<rect x="55.87" y="14.24" transform="matrix(0.866 -0.5 0.5 0.866 1.3372 41.3162)" style="clip-path:url(#SVGID_00000134242396259479886690000017921722512350167200_);fill:#5A1904;" width="43.78" height="7.84"/>
	
		<rect x="-26.63" y="221.6" transform="matrix(0.866 -0.5 0.5 0.866 -113.3931 27.8416)" style="clip-path:url(#SVGID_00000134242396259479886690000017921722512350167200_);" width="43.78" height="7.84"/>
	<path style="clip-path:url(#SVGID_00000134242396259479886690000017921722512350167200_);fill:#1D0001;" d="M75.15,144.98
		l88.04-50.83l0.88,1.52l-88.04,50.83L75.15,144.98z M178.98,91.81l-88.04,50.83l0.88,1.52l88.04-50.83L178.98,91.81z
		 M106.72,140.29l88.04-50.83l0.88,1.52l-88.04,50.83L106.72,140.29z"/>
	
		<rect x="-115.28" y="62.66" transform="matrix(0.866 -0.5 0.5 0.866 -82.5373 34.7898)" style="opacity:0.1;clip-path:url(#SVGID_00000134242396259479886690000017921722512350167200_);" width="277.85" height="217.5"/>
	
		<rect x="149.32" y="198.28" transform="matrix(0.866 -0.5 0.5 0.866 -79.22 104.1055)" style="clip-path:url(#SVGID_00000134242396259479886690000017921722512350167200_);fill:#FF8660;" width="10.67" height="3.2"/>
	
		<rect x="84.14" y="170.78" transform="matrix(0.866 -0.5 0.5 0.866 -74.2022 67.8311)" style="clip-path:url(#SVGID_00000134242396259479886690000017921722512350167200_);fill:#752440;" width="10.67" height="3.2"/>
	
		<rect x="40.68" y="152.45" transform="matrix(0.866 -0.5 0.5 0.866 -70.8576 43.6488)" style="clip-path:url(#SVGID_00000134242396259479886690000017921722512350167200_);fill:#0000FF;" width="10.67" height="3.2"/>
	<path style="clip-path:url(#SVGID_00000134242396259479886690000017921722512350167200_);fill:#FF030A;" d="M118.66,169.56
		l21.47-12.39l-0.36-0.62l-21.47,12.39L118.66,169.56z M142.06,153.29l-21.47,12.39l-0.36-0.62l21.47-12.39L142.06,153.29z
		 M122.54,161.8L144,149.41l-0.36-0.62l-21.47,12.39L122.54,161.8z"/>
	
		<rect x="73.17" y="133.27" transform="matrix(0.866 -0.5 0.5 0.866 -74.4691 77.3151)" style="opacity:0.1;clip-path:url(#SVGID_00000134242396259479886690000017921722512350167200_);fill:#070A1A;" width="67.74" height="88.7"/>
	
		<rect x="168.2" y="67.93" transform="matrix(0.866 -0.5 0.5 0.866 -9.0624 104.6266)" style="clip-path:url(#SVGID_00000134242396259479886690000017921722512350167200_);fill:#6C1A00;" width="45.01" height="2.59"/>
	
		<rect x="347.02" y="17.55" transform="matrix(0.866 -0.5 0.5 0.866 40.0857 187.2889)" style="clip-path:url(#SVGID_00000134242396259479886690000017921722512350167200_);fill:#B22C5B;" width="45.01" height="2.59"/>
	<path style="clip-path:url(#SVGID_00000134242396259479886690000017921722512350167200_);fill:#FF494E;" d="M267.14,66.57
		l-90.52,52.26l0.29,0.5l90.52-52.26L267.14,66.57z M164.37,128.14l90.52-52.26l0.29,0.5l-90.52,52.26L164.37,128.14z M242.65,85.19
		l-90.52,52.26l0.29,0.5l90.52-52.26L242.65,85.19z"/>
	
		<rect x="175.31" y="0.03" transform="matrix(0.866 -0.5 0.5 0.866 24.6087 163.8988)" style="opacity:0.1;clip-path:url(#SVGID_00000134242396259479886690000017921722512350167200_);" width="285.67" height="71.99"/>
	
		<rect x="259.47" y="22.61" transform="matrix(0.866 -0.5 0.5 0.866 26.9742 146.0586)" style="clip-path:url(#SVGID_00000134242396259479886690000017921722512350167200_);fill:#2D0513;" width="53.14" height="0.18"/>
	
		<rect x="137.79" y="95.26" transform="matrix(0.866 -0.5 0.5 0.866 -25.6559 94.956)" style="clip-path:url(#SVGID_00000134242396259479886690000017921722512350167200_);fill:#0909FF;" width="53.14" height="0.18"/>
	
		<rect x="171.33" y="-11.74" transform="matrix(0.866 -0.5 0.5 0.866 50.1855 168.7288)" style="opacity:0.1;clip-path:url(#SVGID_00000134242396259479886690000017921722512350167200_);fill:#000A47;" width="337.22" height="4.92"/>
	
		<rect x="93.18" y="184.53" transform="matrix(0.866 -0.5 0.5 0.866 -76.9705 83.7189)" style="clip-path:url(#SVGID_00000134242396259479886690000017921722512350167200_);fill:#FF6399;" width="49.12" height="1.92"/>
	
		<rect x="217.94" y="138.64" transform="matrix(0.866 -0.5 0.5 0.866 -37.3147 139.9516)" style="clip-path:url(#SVGID_00000134242396259479886690000017921722512350167200_);fill:#1515C2;" width="49.12" height="1.92"/>
	<path style="clip-path:url(#SVGID_00000134242396259479886690000017921722512350167200_);fill:#FF2E34;" d="M7.73,240.55
		l-98.78,57.03l0.22,0.37l98.78-57.03L7.73,240.55z M-104.75,307.15l98.78-57.03l0.22,0.37l-98.78,57.03L-104.75,307.15z
		 M-19.67,259.7l-98.78,57.03l0.22,0.37l98.78-57.03L-19.67,259.7z"/>
	
		<rect x="-92.31" y="180.81" transform="matrix(0.866 -0.5 0.5 0.866 -95.2412 59.5774)" style="opacity:0.1;clip-path:url(#SVGID_00000134242396259479886690000017921722512350167200_);fill:#0024FF;" width="311.72" height="53.41"/>
	
		<rect x="39.49" y="173.26" transform="matrix(0.866 -0.5 0.5 0.866 -78.8323 57.0254)" style="clip-path:url(#SVGID_00000134242396259479886690000017921722512350167200_);fill:#F23A00;" width="55.02" height="4.72"/>
	
		<rect x="271.71" y="135.34" transform="matrix(0.866 -0.5 0.5 0.866 -28.7639 168.0603)" style="clip-path:url(#SVGID_00000134242396259479886690000017921722512350167200_);fill:#C40044;" width="55.02" height="4.72"/>
	
		<rect x="426.53" y="110.07" transform="matrix(0.866 -0.5 0.5 0.866 4.6148 242.0829)" style="clip-path:url(#SVGID_00000134242396259479886690000017921722512350167200_);fill:#0000FF;" width="55.02" height="4.72"/>
	<path style="clip-path:url(#SVGID_00000134242396259479886690000017921722512350167200_);fill:#FF0D14;" d="M171.14,190.94
		L60.5,254.82l0.53,0.92l110.64-63.88L171.14,190.94z M46.11,267.2l110.64-63.88l0.53,0.92L46.64,268.12L46.11,267.2z M142.36,215.7
		L31.73,279.58l0.53,0.92l110.64-63.88L142.36,215.7z"/>
	
		<rect x="58.62" y="87.64" transform="matrix(0.866 -0.5 0.5 0.866 -45.3189 137.1105)" style="opacity:0.1;clip-path:url(#SVGID_00000134242396259479886690000017921722512350167200_);fill:#00020E;" width="349.15" height="130.96"/>
	
		<rect x="98.99" y="92.16" transform="matrix(0.866 -0.5 0.5 0.866 -33.4229 65.1996)" style="clip-path:url(#SVGID_00000134242396259479886690000017921722512350167200_);fill:#FF3D00;" width="11.93" height="5.61"/>
	
		<rect x="189.85" y="154.09" transform="matrix(0.866 -0.5 0.5 0.866 -52.217 118.9277)" style="clip-path:url(#SVGID_00000134242396259479886690000017921722512350167200_);fill:#FF4A89;" width="11.93" height="5.61"/>
	
		<rect x="250.42" y="195.38" transform="matrix(0.866 -0.5 0.5 0.866 -64.7461 154.7441)" style="clip-path:url(#SVGID_00000134242396259479886690000017921722512350167200_);fill:#0000FF;" width="11.93" height="5.61"/>
	<path style="clip-path:url(#SVGID_00000134242396259479886690000017921722512350167200_);fill:#350204;" d="M159.31,153.33
		l-23.99,13.85l0.63,1.09l23.99-13.85L159.31,153.33z M133.92,172.84l23.99-13.85l0.63,1.09l-23.99,13.85L133.92,172.84z
		 M156.51,164.65l-23.99,13.85l0.63,1.09l23.99-13.85L156.51,164.65z"/>
	
		<rect x="134.08" y="65.79" transform="matrix(0.866 -0.5 0.5 0.866 -48.8058 105.2149)" style="opacity:0.1;clip-path:url(#SVGID_00000134242396259479886690000017921722512350167200_);fill:#0020E0;" width="75.71" height="155.78"/>
	
		<rect x="473.65" y="32.71" transform="matrix(0.866 -0.5001 0.5001 0.866 45.9824 241.6914)" style="clip-path:url(#SVGID_00000134242396259479886690000017921722512350167200_);fill:#0000FF;" width="0.58" height="4.68"/>
	
		<rect x="436.78" y="-95.44" transform="matrix(0.866 -0.5 0.5 0.866 74.0502 215.2144)" style="opacity:0.1;clip-path:url(#SVGID_00000134242396259479886690000017921722512350167200_);fill:#2B3367;" width="3.65" height="129.76"/>
	
		<rect x="82.13" y="261.72" transform="matrix(0.866 -0.5 0.5 0.866 -121.0603 78.1014)" style="clip-path:url(#SVGID_00000134242396259479886690000017921722512350167200_);fill:#4848FF;" width="6.16" height="6.47"/>
	
		<rect x="137.68" y="252.59" transform="matrix(0.866 -0.5 0.5 0.866 -150.0833 124.4789)" style="opacity:0.1;clip-path:url(#SVGID_00000134242396259479886690000017921722512350167200_);fill:#00127B;" width="39.12" height="179.41"/>
	
		<rect x="111.77" y="269.54" transform="matrix(0.866 -0.5 0.5 0.866 -120.1797 98.1444)" style="clip-path:url(#SVGID_00000134242396259479886690000017921722512350167200_);fill:#FF689C;" width="22.56" height="7.58"/>
	
		<rect x="119.28" y="162.22" transform="matrix(0.866 -0.5 0.5 0.866 -65.5142 87.5199)" style="clip-path:url(#SVGID_00000134242396259479886690000017921722512350167200_);fill:#0000FF;" width="22.56" height="7.58"/>
	
		<rect x="44.21" y="208.81" transform="matrix(0.866 -0.5 0.5 0.866 -141.4815 99.9664)" style="opacity:0.1;clip-path:url(#SVGID_00000134242396259479886690000017921722512350167200_);fill:#4657B9;" width="143.17" height="210.37"/>
	
		<rect x="314.66" y="81.27" transform="matrix(0.866 -0.5 0.5 0.866 2.7236 180.5633)" style="clip-path:url(#SVGID_00000134242396259479886690000017921722512350167200_);fill:#FF397D;" width="47.28" height="7.85"/>
	<path style="clip-path:url(#SVGID_00000134242396259479886690000017921722512350167200_);fill:#760C0F;" d="M250.86,170.16
		l-95.08,54.89l-0.88-1.53l95.08-54.89L250.86,170.16z M138.97,227.98l95.08-54.89l-0.88-1.53l-95.08,54.89L138.97,227.98z
		 M217.23,176.01l-95.08,54.89l-0.88-1.53l95.08-54.89L217.23,176.01z"/>
	
		<rect x="156.34" y="32.44" transform="matrix(0.866 -0.5 0.5 0.866 -29.6674 172.1306)" style="opacity:0.1;clip-path:url(#SVGID_00000134242396259479886690000017921722512350167200_);fill:#000C56;" width="300.05" height="217.96"/>
	
		<rect x="309.98" y="146.95" transform="matrix(0.866 -0.5 0.5 0.866 -29.7632 187.0583)" style="clip-path:url(#SVGID_00000134242396259479886690000017921722512350167200_);fill:#753E2C;" width="48.39" height="4.23"/>
	<path style="clip-path:url(#SVGID_00000134242396259479886690000017921722512350167200_);fill:#FF5358;" d="M426.33,163.53
		l-97.3,56.18l0.47,0.82l97.3-56.18L426.33,163.53z M316.41,230.65l97.3-56.18l0.47,0.82l-97.3,56.18L316.41,230.65z M401.09,185.41
		l-97.3,56.18l0.47,0.82l97.3-56.18L401.09,185.41z"/>
	
		<rect x="327.36" y="71.52" transform="matrix(0.866 -0.5 0.5 0.866 -0.6928 257.8953)" style="opacity:0.1;clip-path:url(#SVGID_00000134242396259479886690000017921722512350167200_);" width="307.07" height="117.45"/>
	
		<rect x="254.13" y="117.48" transform="matrix(0.866 -0.5 0.5 0.866 -23.5456 152.3566)" style="clip-path:url(#SVGID_00000134242396259479886690000017921722512350167200_);fill:#4B1200;" width="36.79" height="5.28"/>
	
		<rect x="428.13" y="124.52" transform="matrix(0.866 -0.5 0.5 0.866 -3.7581 240.2973)" style="clip-path:url(#SVGID_00000134242396259479886690000017921722512350167200_);fill:#FF6A9E;" width="36.79" height="5.28"/>
	<path style="clip-path:url(#SVGID_00000134242396259479886690000017921722512350167200_);fill:#570002;" d="M356.84,155.78
		l-73.98,42.71l0.59,1.02l73.98-42.71L356.84,155.78z M274.03,208.15l73.98-42.71l0.59,1.02l-73.98,42.71L274.03,208.15z
		 M339.19,175.09L265.2,217.8l0.59,1.03l73.98-42.71L339.19,175.09z"/>
	
		<rect x="281.21" y="56.62" transform="matrix(0.866 -0.5 0.5 0.866 -11.5953 216.3681)" style="opacity:0.1;clip-path:url(#SVGID_00000134242396259479886690000017921722512350167200_);fill:#000C54;" width="233.47" height="146.4"/>
	
		<rect x="453.37" y="221.6" transform="matrix(0.866 -0.5 0.5 0.866 -49.0853 267.8416)" style="clip-path:url(#SVGID_00000134242396259479886690000017921722512350167200_);" width="43.78" height="7.84"/>
	
		<rect x="364.72" y="62.66" transform="matrix(0.866 -0.5 0.5 0.866 -18.2295 274.7898)" style="opacity:0.1;clip-path:url(#SVGID_00000134242396259479886690000017921722512350167200_);" width="277.85" height="217.5"/>
	
		<rect x="386.04" y="253.35" transform="matrix(0.866 -0.5 0.5 0.866 -72.1465 239.3706)" style="clip-path:url(#SVGID_00000134242396259479886690000017921722512350167200_);fill:#FF3D00;" width="49.12" height="1.92"/>
	<path style="clip-path:url(#SVGID_00000134242396259479886690000017921722512350167200_);fill:#FF2E34;" d="M487.73,240.55
		l-98.78,57.03l0.22,0.37l98.78-57.03L487.73,240.55z M375.25,307.15l98.78-57.03l0.22,0.37l-98.78,57.03L375.25,307.15z
		 M460.33,259.7l-98.78,57.03l0.22,0.37l98.78-57.03L460.33,259.7z"/>
	
		<rect x="387.69" y="180.81" transform="matrix(0.866 -0.5 0.5 0.866 -30.9333 299.5775)" style="opacity:0.1;clip-path:url(#SVGID_00000134242396259479886690000017921722512350167200_);fill:#0024FF;" width="311.72" height="53.41"/>
	
		<rect x="-13.76" y="253.96" transform="matrix(0.866 -0.5 0.5 0.866 -126.4564 38.5706)" style="clip-path:url(#SVGID_00000134242396259479886690000017921722512350167200_);fill:#0000FF;" width="45.01" height="2.59"/>
	
		<rect x="-38.02" y="183.62" transform="matrix(0.866 -0.5 0.5 0.866 -93.3886 18.8853)" style="clip-path:url(#SVGID_00000134242396259479886690000017921722512350167200_);fill:#FF4B12;" width="53.14" height="0.18"/>
	<path style="clip-path:url(#SVGID_00000134242396259479886690000017921722512350167200_);fill:#470002;" d="M-79.25,225.69
		L27.6,163.99l0.02,0.03l-106.86,61.69L-79.25,225.69z M43.27,155.1L-63.59,216.8l0.02,0.03l106.86-61.69L43.27,155.1z
		 M-47.92,207.91l106.86-61.69l0.02,0.03L-47.9,207.94L-47.92,207.91z"/>
	
		<rect x="-308.67" y="258.26" transform="matrix(0.866 -0.5 0.5 0.866 -149.1223 -35.0981)" style="opacity:0.1;clip-path:url(#SVGID_00000134242396259479886690000017921722512350167200_);fill:#000A47;" width="337.22" height="4.92"/>
	
		<rect x="-323.66" y="302.44" transform="matrix(0.866 -0.5 0.5 0.866 -228.9751 -31.6962)" style="opacity:0.1;clip-path:url(#SVGID_00000134242396259479886690000017921722512350167200_);fill:#000C56;" width="300.05" height="217.96"/>
	
		<rect x="71.1" y="227.06" transform="matrix(0.866 -0.5 0.5 0.866 -105.045 68.6)" style="clip-path:url(#SVGID_00000134242396259479886690000017921722512350167200_);fill:#0000FF;" width="8.77" height="6.52"/>
	
		<rect x="70.38" y="246.67" transform="matrix(0.866 -0.5 0.5 0.866 -155.3932 94.2634)" style="opacity:0.1;clip-path:url(#SVGID_00000134242396259479886690000017921722512350167200_);" width="55.64" height="180.86"/>
	
		<rect x="85.26" y="230.32" transform="matrix(0.866 -0.5 0.5 0.866 -123.6219 133.2265)" style="opacity:0.1;clip-path:url(#SVGID_00000134242396259479886690000017921722512350167200_);" width="203.06" height="133.95"/>
	
		<rect x="316.19" y="221.01" transform="matrix(0.866 -0.5 0.5 0.866 -68.209 190.4083)" style="clip-path:url(#SVGID_00000134242396259479886690000017921722512350167200_);fill:#270900;" width="10.04" height="2.95"/>
	
		<rect x="376.96" y="245.95" transform="matrix(0.866 -0.5 0.5 0.866 -72.5342 224.1373)" style="clip-path:url(#SVGID_00000134242396259479886690000017921722512350167200_);fill:#FF4B89;" width="10.04" height="2.95"/>
	
		<rect x="417.48" y="262.57" transform="matrix(0.866 -0.5 0.5 0.866 -75.4177 246.6268)" style="clip-path:url(#SVGID_00000134242396259479886690000017921722512350167200_);fill:#0000B4;" width="10.04" height="2.95"/>
	<path style="clip-path:url(#SVGID_00000134242396259479886690000017921722512350167200_);fill:#FF6F73;" d="M354.64,250.27
		l-20.19,11.66l0.33,0.57l20.19-11.66L354.64,250.27z M332.6,265.54l20.19-11.66l0.33,0.57l-20.19,11.66L332.6,265.54z
		 M350.95,257.49l-20.19,11.66l0.33,0.57l20.19-11.66L350.95,257.49z"/>
	
		<rect x="333.73" y="201.84" transform="matrix(0.866 -0.5 0.5 0.866 -72.3769 215.3109)" style="opacity:0.1;clip-path:url(#SVGID_00000134242396259479886690000017921722512350167200_);fill:#0024FF;" width="63.72" height="81.74"/>
	
		<rect x="466.24" y="253.96" transform="matrix(0.866 -0.5 0.5 0.866 -62.1487 278.5703)" style="clip-path:url(#SVGID_00000134242396259479886690000017921722512350167200_);fill:#0000FF;" width="45.01" height="2.59"/>
	
		<rect x="175.31" y="270.03" transform="matrix(0.866 -0.5 0.5 0.866 -110.3913 200.0719)" style="opacity:0.1;clip-path:url(#SVGID_00000134242396259479886690000017921722512350167200_);" width="285.67" height="71.99"/>
	
		<rect x="441.98" y="183.62" transform="matrix(0.866 -0.5 0.5 0.866 -29.0808 258.8851)" style="clip-path:url(#SVGID_00000134242396259479886690000017921722512350167200_);fill:#FF4B12;" width="53.14" height="0.18"/>
	<path style="clip-path:url(#SVGID_00000134242396259479886690000017921722512350167200_);fill:#470002;" d="M400.75,225.69
		l106.86-61.69l0.02,0.03l-106.86,61.69L400.75,225.69z M523.27,155.1L416.41,216.8l0.02,0.03l106.86-61.69L523.27,155.1z
		 M432.08,207.91l106.86-61.69l0.02,0.03L432.1,207.94L432.08,207.91z"/>
	
		<rect x="171.33" y="258.26" transform="matrix(0.866 -0.5 0.5 0.866 -84.8145 204.9019)" style="opacity:0.1;clip-path:url(#SVGID_00000134242396259479886690000017921722512350167200_);fill:#000A47;" width="337.22" height="4.92"/>
	
		<rect x="408.21" y="181.69" transform="matrix(0.866 -0.5 0.5 0.866 -37.2902 228.8849)" style="clip-path:url(#SVGID_00000134242396259479886690000017921722512350167200_);fill:#FF7F56;" width="0.58" height="4.68"/>
	
		<rect x="447.47" y="254.31" transform="matrix(0.866 -0.5 0.5 0.866 -68.3338 258.2894)" style="clip-path:url(#SVGID_00000134242396259479886690000017921722512350167200_);fill:#FF1164;" width="0.58" height="4.68"/>
	<path style="clip-path:url(#SVGID_00000134242396259479886690000017921722512350167200_);fill:#FF2D32;" d="M440.12,240.53
		l1.16-0.67l0.52,0.91l-1.16,0.67L440.12,240.53z M443.19,242.79l-1.16,0.67l0.52,0.91l1.16-0.67L443.19,242.79z M443.95,246.39
		l1.16-0.67l0.52,0.91l-1.16,0.67L443.95,246.39z"/>
	
		<rect x="436.78" y="174.56" transform="matrix(0.866 -0.5 0.5 0.866 -60.954 251.39)" style="opacity:0.1;clip-path:url(#SVGID_00000134242396259479886690000017921722512350167200_);fill:#2B3367;" width="3.65" height="129.76"/>
	
		<rect x="377.64" y="208.21" transform="matrix(0.866 -0.5 0.5 0.866 -52.3047 229.0617)" style="clip-path:url(#SVGID_00000134242396259479886690000017921722512350167200_);fill:#0000FF;" width="47.28" height="7.85"/>
	
		<rect x="156.34" y="302.44" transform="matrix(0.866 -0.5 0.5 0.866 -164.6673 208.3037)" style="opacity:0.1;clip-path:url(#SVGID_00000134242396259479886690000017921722512350167200_);fill:#000C56;" width="300.05" height="217.96"/>
</g>
</svg>
