<?xml version="1.0" encoding="utf-8"?>
<!-- Generator: Adobe Illustrator 26.0.1, SVG Export Plug-In . SVG Version: 6.00 Build 0)  -->
<svg version="1.1" id="Layer_1" xmlns="http://www.w3.org/2000/svg" xmlns:xlink="http://www.w3.org/1999/xlink" x="0px" y="0px"
	 viewBox="0 0 474.55 449.09" style="enable-background:new 0 0 474.55 449.09;" xml:space="preserve">
<style type="text/css">
	.st0{fill:url(#SVGID_1_);}
	.st1{fill:url(#SVGID_00000165949258471491386650000004281646855397466032_);}
	.st2{fill:url(#SVGID_00000090278064769815492470000006557525691321605014_);}
	.st3{fill:url(#SVGID_00000172419187323695144810000004286416293063056818_);}
</style>
<g>
	<g>
		
			<linearGradient id="SVGID_1_" gradientUnits="userSpaceOnUse" x1="469.2065" y1="247.6868" x2="119.1293" y2="247.6868" gradientTransform="matrix(0.7071 0.7071 -0.7071 0.7071 196.9418 -159.4228)">
			<stop  offset="0" style="stop-color:#00A1FF"/>
			<stop  offset="1" style="stop-color:#FF6BB5"/>
		</linearGradient>
		<path class="st0" d="M399.92,167.47l-15.72-35.5c-1.1-2.49-3.19-4.46-5.74-5.4L180.92,53.24c-2.52-0.93-5.25-0.84-7.7,0.27
			l-36.14,16.33c-2.47,1.12-4.43,3.22-5.37,5.76L58.72,272.25c-0.97,2.61-0.83,5.54,0.39,8.04l18.11,37.16
			c0.5,1.03,1.16,1.95,1.95,2.74c1.02,1.02,2.25,1.81,3.63,2.33l195.46,72.55c2.51,0.93,5.25,0.84,7.7-0.27l35.38-15.98
			c2.47-1.12,4.43-3.22,5.37-5.76l73.45-197.89C401.09,172.65,401.01,169.92,399.92,167.47z M318.04,371.52l-35.38,15.98
			c-0.52,0.23-1.1,0.26-1.62,0.06l-76.42-28.37l4.62-12.2l22-15.63l15.98-42.22c2.31,0.13,4.64-0.3,6.81-1.3
			c3.5-1.61,6.17-4.48,7.51-8.09c1.34-3.61,1.19-7.53-0.41-11.03c-1.61-3.5-4.48-6.17-8.09-7.51c-7.46-2.77-15.78,1.05-18.54,8.5
			c-1.34,3.61-1.19,7.53,0.41,11.03c0.73,1.59,1.71,3,2.91,4.2c0.57,0.57,1.2,1.07,1.86,1.54l-15.06,39.77l-22,15.63l-5.5,14.53
			l-111.53-41.4c-0.52-0.19-0.93-0.57-1.18-1.07L66.3,276.78c-0.26-0.54-0.29-1.18-0.08-1.75l9.62-25.92l26.51,9.84l20.3-11.1
			l5.55,2.06c-0.31,4.21,1.25,8.34,4.2,11.29c1.42,1.42,3.16,2.57,5.17,3.31c7.46,2.77,15.78-1.05,18.54-8.5
			c1.34-3.61,1.19-7.53-0.41-11.03c-1.61-3.5-4.48-6.17-8.09-7.51c-3.61-1.34-7.53-1.2-11.03,0.41c-2.25,1.03-4.15,2.6-5.59,4.54
			l-8.97-3.33l-20.3,11.1l-23.09-8.57l31.69-85.38l41.82,15.52l15.78,21.9l14.07,5.22c-0.2,2.43,0.22,4.89,1.26,7.17
			c0.73,1.59,1.71,3,2.91,4.2c1.45,1.45,3.2,2.58,5.18,3.31c7.46,2.77,15.78-1.05,18.54-8.5l0,0c2.77-7.46-1.05-15.77-8.5-18.54
			c-3.61-1.34-7.53-1.19-11.03,0.41c-2.23,1.02-4.11,2.56-5.54,4.47L172.98,187L157.2,165.1l-44.11-16.37l26.11-70.35
			c0.21-0.56,0.63-1.01,1.17-1.26l36.14-16.33c0.52-0.23,1.1-0.26,1.62-0.06l69.21,25.69l-6.87,9.61l-34.54,18.8
			c-1.18-0.94-2.51-1.7-3.96-2.24c-3.61-1.34-7.53-1.19-11.03,0.41c-3.5,1.61-6.17,4.48-7.51,8.09c-1.34,3.61-1.19,7.53,0.41,11.03
			c0.73,1.59,1.71,3,2.91,4.2c1.45,1.45,3.2,2.58,5.18,3.31c3.61,1.34,7.53,1.2,11.03-0.41c3.5-1.61,6.17-4.48,7.51-8.09
			c1.18-3.17,1.21-6.57,0.11-9.73l35.32-19.23l9.21-12.87l120.56,44.75c0.29,0.11,0.55,0.27,0.76,0.49
			c0.19,0.19,0.34,0.41,0.45,0.65l15.72,35.5c0.24,0.53,0.25,1.13,0.05,1.68l-25.83,69.58l-46.33-17.2l-25.38-40.56l-17.47-6.48
			l-28.4,9.51c-1.65-2.26-3.92-3.98-6.6-4.98c-3.61-1.34-7.53-1.19-11.03,0.41c-3.5,1.61-6.17,4.48-7.51,8.09
			c-2.02,5.45-0.53,11.37,3.34,15.24c1.42,1.42,3.16,2.56,5.17,3.31c7.46,2.77,15.78-1.05,18.55-8.5l0,0c0.73-1.97,1-4.02,0.86-6.06
			l25.5-8.54l12.27,4.55l25.38,40.56l48.88,18.14l-12.84,34.59l-11.1-4.12l-10.52-19.95l-31.43-11.67c0.13-2.31-0.3-4.63-1.3-6.8
			c-1.61-3.5-4.48-6.17-8.09-7.51c-3.61-1.34-7.53-1.19-11.03,0.41c-3.5,1.61-6.17,4.48-7.51,8.09c-2.02,5.45-0.53,11.37,3.34,15.24
			c1.42,1.42,3.16,2.57,5.17,3.31c3.61,1.34,7.53,1.19,11.03-0.41c2.34-1.07,4.3-2.73,5.75-4.78l28.43,10.55l10.52,19.95l13.97,5.18
			l-29.22,78.72C319,370.83,318.57,371.28,318.04,371.52z M241.26,277.82c-0.83-1.8-0.9-3.82-0.21-5.68
			c1.42-3.84,5.71-5.8,9.55-4.38c1.02,0.38,1.92,0.96,2.67,1.71c0.62,0.62,1.12,1.34,1.5,2.16c0.83,1.8,0.9,3.82,0.21,5.68
			c-0.69,1.86-2.06,3.34-3.87,4.17c-1.8,0.83-3.82,0.9-5.68,0.21C243.56,281,242.08,279.62,241.26,277.82z M145.17,244.02
			c1.02,0.38,1.92,0.96,2.67,1.71c0.62,0.62,1.12,1.34,1.5,2.16c0.83,1.8,0.9,3.82,0.21,5.68c-1.43,3.84-5.71,5.8-9.55,4.38
			c-3.84-1.42-5.8-5.71-4.38-9.55C137.04,244.56,141.33,242.59,145.17,244.02z M193.77,206.99c-1.86-0.69-3.34-2.06-4.17-3.87
			c-0.83-1.8-0.9-3.82-0.21-5.68c1.42-3.84,5.71-5.8,9.55-4.38c1.03,0.38,1.93,0.97,2.66,1.7c1.99,1.99,2.76,5.04,1.72,7.84l0,0
			C201.89,206.45,197.61,208.41,193.77,206.99z M199.53,119.16c1.02,0.38,1.92,0.96,2.67,1.71c0.62,0.62,1.12,1.35,1.5,2.16
			c0.83,1.8,0.9,3.82,0.21,5.68c-0.69,1.86-2.06,3.34-3.87,4.17c-1.8,0.83-3.82,0.9-5.68,0.21c-3.84-1.43-5.8-5.71-4.38-9.55
			C191.41,119.7,195.69,117.73,199.53,119.16z M242.88,190.53c0.62,0.62,1.13,1.34,1.5,2.16c0.83,1.8,0.9,3.82,0.21,5.68
			c-1.43,3.84-5.71,5.8-9.55,4.38c-1.86-0.69-3.34-2.06-4.17-3.87c-0.83-1.8-0.9-3.82-0.21-5.68c1.42-3.84,5.71-5.8,9.55-4.38
			C241.23,189.2,242.13,189.78,242.88,190.53z M281.16,254.5c-3.84-1.42-5.8-5.71-4.38-9.55c0.69-1.86,2.06-3.34,3.87-4.17
			c1.8-0.83,3.82-0.9,5.68-0.21c1.02,0.38,1.92,0.96,2.67,1.71c0.62,0.62,1.12,1.34,1.5,2.16c0.83,1.8,0.9,3.82,0.21,5.68
			C289.28,253.96,285,255.92,281.16,254.5z"/>
		
			<linearGradient id="SVGID_00000072282302810381672750000017022874646675816857_" gradientUnits="userSpaceOnUse" x1="509.0012" y1="248.0084" x2="78.7708" y2="248.0084" gradientTransform="matrix(0.7071 0.7071 -0.7071 0.7071 196.9418 -159.4228)">
			<stop  offset="0" style="stop-color:#00A1FF"/>
			<stop  offset="1" style="stop-color:#FF6BB5"/>
		</linearGradient>
		<path style="fill:url(#SVGID_00000072282302810381672750000017022874646675816857_);" d="M364.07,392.36l0.27-0.72
			c1.38-3.69-0.5-7.8-4.19-9.18l-13.41-5l8.16-21.98l13.66,5.09c3.69,1.38,7.8-0.5,9.18-4.19l0.27-0.72c1.38-3.69-0.5-7.8-4.19-9.18
			l-13.68-5.1l13.62-36.7l13.74,5.12c3.69,1.38,7.8-0.5,9.18-4.19l0.27-0.72c1.38-3.69-0.5-7.8-4.19-9.18l-13.76-5.13l10.39-27.99
			l13.8,5.15c3.69,1.38,7.8-0.5,9.18-4.19l0.27-0.72c1.38-3.69-0.5-7.8-4.19-9.18l-13.83-5.16l10.77-29.02l13.66,5.1
			c3.69,1.38,7.8-0.5,9.18-4.19l0.27-0.72c1.38-3.69-0.5-7.8-4.19-9.18l-13.69-5.1l8.46-22.8l13.72,5.12
			c3.69,1.38,7.8-0.5,9.18-4.19l0.27-0.72c1.38-3.69-0.5-7.8-4.19-9.18l-13.79-5.15c0.9-3.14,0.68-6.47-0.65-9.49l-17.68-39.94
			c-1.5-3.39-4.35-6.08-7.82-7.39l4.79-12.9c1.45-3.89-0.54-8.22-4.43-9.67l0,0c-3.89-1.44-8.22,0.54-9.67,4.43l-4.79,12.9
			l-21.98-8.16l4.87-13.11c1.44-3.89-0.54-8.22-4.43-9.67c-3.89-1.44-8.22,0.54-9.67,4.43l-4.87,13.11l-36.7-13.62l4.87-13.11
			c1.45-3.89-0.54-8.22-4.43-9.67c-3.89-1.44-8.22,0.54-9.67,4.43l-4.87,13.11l-27.99-10.39l4.87-13.11
			c1.44-3.89-0.54-8.22-4.43-9.67c-3.89-1.44-8.22,0.54-9.67,4.43l-4.87,13.11l-29.02-10.77l4.79-12.9
			c1.45-3.89-0.54-8.22-4.43-9.66l0,0c-3.89-1.44-8.22,0.54-9.66,4.43l-4.79,12.9l-22.8-8.46l4.79-12.9
			c1.44-3.89-0.54-8.22-4.43-9.67c-3.89-1.45-8.22,0.54-9.67,4.43l-4.8,12.94c-3.23-0.99-6.67-0.79-9.77,0.62l-40.66,18.37
			c-3.3,1.49-5.92,4.26-7.25,7.63l-12.89-4.81c-3.89-1.45-8.22,0.53-9.67,4.42c-1.45,3.89,0.53,8.22,4.42,9.67l12.9,4.81l-8.46,22.8
			l-12.94-4.83c-3.89-1.45-8.22,0.53-9.67,4.42v0c-1.45,3.89,0.53,8.22,4.42,9.67l12.96,4.83l-10.77,29.03l-13.74-5.12
			c-3.89-1.45-8.22,0.53-9.67,4.42v0c-1.45,3.89,0.53,8.22,4.42,9.67l13.76,5.13l-10.39,27.99l-12.87-4.8
			c-3.89-1.45-8.22,0.53-9.67,4.42h0c-1.45,3.89,0.53,8.22,4.42,9.67l12.89,4.81l-13.62,36.7l-12.95-4.83
			c-3.89-1.45-8.22,0.53-9.67,4.42c-1.45,3.89,0.53,8.22,4.42,9.67l12.97,4.84l-8.16,21.98l-13.21-4.93
			c-3.89-1.45-8.22,0.53-9.67,4.42c-1.45,3.89,0.53,8.22,4.42,9.67l13.34,4.98c-0.75,3.13-0.41,6.48,1.01,9.39l20.37,41.81
			c0.69,1.41,1.59,2.67,2.67,3.76c0.96,0.96,2.08,1.77,3.29,2.41l-5.1,13.75c-1.44,3.89,0.54,8.22,4.43,9.66
			c3.89,1.44,8.22-0.54,9.67-4.43l5.06-13.62l22.8,8.46l-5.06,13.62c-1.44,3.89,0.54,8.22,4.43,9.67c3.89,1.44,8.22-0.54,9.67-4.43
			l5.06-13.62l29.02,10.77l-4.98,13.41c-1.44,3.89,0.54,8.22,4.43,9.67c3.89,1.44,8.22-0.54,9.66-4.43l4.98-13.41l27.99,10.39
			l-4.98,13.41c-1.44,3.89,0.54,8.22,4.43,9.67c3.89,1.44,8.22-0.54,9.66-4.43l4.98-13.41l36.7,13.62l-4.98,13.41
			c-1.45,3.89,0.54,8.22,4.43,9.67c3.89,1.44,8.22-0.54,9.66-4.43l4.98-13.41l21.98,8.16l-5.05,13.62
			c-1.45,3.89,0.54,8.22,4.43,9.67c3.89,1.44,8.22-0.54,9.67-4.43l5.09-13.7c3.03,0.76,6.2,0.49,9.09-0.82l39.8-17.97
			c3.38-1.53,6.07-4.4,7.36-7.89l0.22-0.59l13.39,4.99C358.58,397.93,362.69,396.06,364.07,392.36z M288.43,405.26L68.59,323.68
			l-20.36-41.81l15.19-40.93c0.09-0.19,0.18-0.39,0.25-0.59c0.08-0.22,0.15-0.43,0.21-0.65l18.17-48.95
			c0.21-0.37,0.4-0.75,0.56-1.16l0,0c0.16-0.42,0.27-0.84,0.34-1.27l30.9-83.25c0.11-0.23,0.22-0.47,0.31-0.72h0
			c0.09-0.25,0.17-0.51,0.24-0.76l13.01-35.04c0.19-0.34,0.37-0.7,0.51-1.08c0.14-0.39,0.25-0.78,0.32-1.17l2.11-5.67l40.58-18.37
			l5.17,1.92c0.34,0.19,0.69,0.37,1.07,0.51l0,0c0.38,0.14,0.76,0.24,1.14,0.32l34.66,12.86c0.35,0.2,0.71,0.38,1.1,0.52
			c0.39,0.14,0.78,0.24,1.17,0.32l169.7,62.97c0.38,0.22,0.78,0.42,1.21,0.58l0,0c0.43,0.16,0.86,0.27,1.29,0.35l5.68,2.11
			l17.68,39.94l-82.63,222.63L288.43,405.26z"/>
	</g>
	<g>
		
			<linearGradient id="SVGID_00000111886937430152130250000010272764296631645113_" gradientUnits="userSpaceOnUse" x1="63.0373" y1="224.7713" x2="413.1112" y2="224.7713">
			<stop  offset="0" style="stop-color:#FF7900"/>
			<stop  offset="0.4946" style="stop-color:#FF00B5"/>
			<stop  offset="1" style="stop-color:#0054AB"/>
		</linearGradient>
		<path style="fill:url(#SVGID_00000111886937430152130250000010272764296631645113_);" d="M318.59,64.7l-36.22-13.99
			c-2.54-0.98-5.41-0.89-7.88,0.24L82.96,138.79c-2.44,1.12-4.31,3.12-5.26,5.64l-14.01,37.1c-0.96,2.54-0.86,5.41,0.28,7.87
			l87.44,190.66c1.16,2.53,3.33,4.5,5.96,5.41l39.08,13.48c1.08,0.37,2.2,0.56,3.31,0.56c1.44,0,2.88-0.31,4.22-0.92l189.51-86.91
			c2.44-1.12,4.3-3.12,5.26-5.63l13.72-36.32c0.96-2.54,0.86-5.41-0.28-7.87L324.19,69.98C323.07,67.54,321.08,65.67,318.59,64.7z
			 M404.97,266.89l-13.72,36.31c-0.2,0.53-0.59,0.96-1.11,1.19l-74.1,33.98l-5.36-11.9l4.5-26.61l-18.55-41.16
			c1.73-1.54,3.07-3.49,3.9-5.73c1.34-3.61,1.2-7.53-0.41-11.03c-1.61-3.5-4.48-6.17-8.09-7.51c-3.61-1.34-7.53-1.19-11.03,0.41
			c-7.23,3.32-10.42,11.9-7.1,19.13c1.61,3.5,4.48,6.17,8.09,7.51c1.64,0.61,3.33,0.91,5.03,0.91c0.8,0,1.61-0.09,2.4-0.22
			l17.47,38.76l-4.5,26.61l6.39,14.16l-108.14,49.59c-0.5,0.23-1.06,0.26-1.59,0.08l-39.08-13.48c-0.57-0.2-1.04-0.63-1.29-1.18
			l-11.53-25.13l25.71-11.79l6.51-22.2l5.38-2.47c2.76,3.2,6.79,5.01,10.95,5.01c2.01,0,4.05-0.42,5.99-1.31
			c7.23-3.32,10.42-11.9,7.1-19.13c-1.61-3.5-4.48-6.17-8.09-7.51c-3.61-1.34-7.53-1.19-11.03,0.41c-3.5,1.61-6.17,4.48-7.51,8.09
			c-0.86,2.32-1.1,4.77-0.74,7.16l-8.69,3.99l-6.51,22.2l-22.39,10.27l-37.96-82.78l40.55-18.6l26.64,4.33l13.64-6.26
			c1.58,1.86,3.61,3.3,5.96,4.18c1.64,0.61,3.33,0.91,5.03,0.91c2.05,0,4.09-0.44,6.01-1.32c7.23-3.32,10.42-11.9,7.1-19.13h0
			c-3.32-7.23-11.9-10.41-19.13-7.1c-3.5,1.61-6.17,4.48-7.51,8.09c-0.85,2.3-1.1,4.72-0.75,7.08l-11.47,5.26l-26.64-4.33
			l-42.76,19.61l-31.28-68.21c-0.25-0.54-0.27-1.16-0.06-1.71l14.01-37.1c0.2-0.53,0.59-0.96,1.11-1.19l67.1-30.77l1.93,11.65
			l-11.13,37.72c-1.5,0.17-2.98,0.57-4.39,1.22c-3.5,1.61-6.17,4.48-7.51,8.09c-1.34,3.61-1.19,7.53,0.41,11.03
			c1.61,3.5,4.48,6.17,8.09,7.51c1.64,0.61,3.33,0.91,5.03,0.91c2.05,0,4.09-0.44,6.01-1.32c3.5-1.61,6.17-4.48,7.51-8.09
			c1.34-3.61,1.19-7.53-0.41-11.03c-1.41-3.07-3.8-5.5-6.8-6.96l11.38-38.57l-2.59-15.61l116.89-53.61
			c0.28-0.13,0.58-0.19,0.89-0.19c0.26,0,0.53,0.05,0.78,0.15l36.22,13.99c0.54,0.21,0.98,0.62,1.22,1.15l30.94,67.46l-44.92,20.6
			l-46.63-10.73l-16.94,7.77l-13.35,26.8c-2.76-0.43-5.59-0.04-8.19,1.15c-3.5,1.61-6.17,4.48-7.51,8.09
			c-1.34,3.61-1.19,7.53,0.41,11.03c2.43,5.29,7.67,8.41,13.13,8.41c2.01,0,4.05-0.42,5.99-1.31c7.23-3.32,10.41-11.9,7.1-19.13v0
			c-0.87-1.91-2.14-3.56-3.68-4.89l11.99-24.07l11.9-5.46l46.63,10.73l47.39-21.74l15.38,33.53l-10.77,4.94l-21.54-6.66
			l-30.47,13.98c-1.54-1.72-3.49-3.06-5.72-3.89c-3.61-1.34-7.53-1.19-11.03,0.41c-3.5,1.61-6.17,4.48-7.51,8.09
			c-1.34,3.61-1.2,7.53,0.41,11.03c2.43,5.29,7.67,8.41,13.14,8.41c2.01,0,4.05-0.42,5.99-1.31c3.5-1.61,6.17-4.48,7.51-8.09
			c0.9-2.42,1.11-4.97,0.69-7.45l27.56-12.64l21.54,6.66l13.54-6.21l35,76.32C405.16,265.72,405.18,266.35,404.97,266.89z
			 M284.42,254.93c-1.86-0.69-3.34-2.06-4.17-3.87c-1.71-3.72-0.07-8.14,3.65-9.85c0.99-0.45,2.04-0.68,3.09-0.68
			c0.87,0,1.75,0.16,2.59,0.47c1.86,0.69,3.34,2.06,4.17,3.87c0.83,1.8,0.9,3.82,0.21,5.68c-0.69,1.86-2.06,3.34-3.87,4.17
			C288.3,255.55,286.28,255.62,284.42,254.93z M192.57,298.97c0.99-0.45,2.04-0.68,3.09-0.68c0.87,0,1.75,0.16,2.59,0.47
			c1.86,0.69,3.34,2.06,4.17,3.87c1.71,3.72,0.07,8.14-3.65,9.85c-3.72,1.71-8.14,0.07-9.85-3.65
			C187.21,305.1,188.85,300.68,192.57,298.97z M200.76,238.42c-1.8,0.83-3.82,0.9-5.68,0.21c-1.86-0.69-3.34-2.06-4.17-3.87
			c-1.71-3.72-0.07-8.14,3.65-9.85c1-0.46,2.05-0.68,3.08-0.68c2.82,0,5.51,1.61,6.76,4.33h0
			C206.12,232.3,204.48,236.71,200.76,238.42z M142.73,172.24c0.99-0.45,2.04-0.68,3.09-0.68c0.87,0,1.75,0.16,2.59,0.47
			c1.86,0.69,3.34,2.06,4.17,3.87c0.83,1.8,0.9,3.82,0.21,5.68c-0.69,1.86-2.06,3.34-3.87,4.17c-3.72,1.71-8.14,0.07-9.85-3.65
			C137.36,178.37,139,173.95,142.73,172.24z M223.85,192.06c0.87,0,1.75,0.16,2.59,0.47c1.86,0.69,3.34,2.06,4.17,3.87
			c1.71,3.72,0.07,8.14-3.66,9.85c-1.8,0.83-3.82,0.9-5.68,0.21c-1.86-0.69-3.34-2.06-4.17-3.87c-1.71-3.72-0.07-8.14,3.65-9.85
			C221.74,192.29,222.79,192.06,223.85,192.06z M296.14,210.22c-3.72,1.71-8.14,0.07-9.85-3.65c-0.83-1.8-0.9-3.82-0.21-5.68
			c0.69-1.86,2.06-3.34,3.87-4.17c0.99-0.45,2.04-0.68,3.09-0.68c0.87,0,1.75,0.16,2.59,0.47c1.86,0.69,3.34,2.06,4.17,3.87
			C301.51,204.1,299.87,208.52,296.14,210.22z"/>
		
			<linearGradient id="SVGID_00000138567167455407445120000000785120785413075352_" gradientUnits="userSpaceOnUse" x1="22.6792" y1="225.0928" x2="452.9055" y2="225.0928">
			<stop  offset="0" style="stop-color:#FF7900"/>
			<stop  offset="0.4946" style="stop-color:#FF00B5"/>
			<stop  offset="1" style="stop-color:#0054AB"/>
		</linearGradient>
		<path style="fill:url(#SVGID_00000138567167455407445120000000785120785413075352_);" d="M452.26,249.08l-0.32-0.7
			c-1.64-3.58-5.87-5.16-9.45-3.53l-13.02,5.95l-9.77-21.31l13.26-6.05c3.58-1.64,5.16-5.87,3.53-9.45l-0.32-0.7
			c-1.64-3.58-5.87-5.16-9.45-3.53l-13.28,6.06l-16.32-35.58l13.34-6.09c3.58-1.64,5.16-5.87,3.53-9.45l-0.32-0.7
			c-1.64-3.58-5.87-5.16-9.45-3.53l-13.36,6.1l-12.44-27.14l13.4-6.12c3.58-1.64,5.16-5.87,3.53-9.45l-0.32-0.7
			c-1.64-3.58-5.87-5.16-9.45-3.53l-13.42,6.13l-12.91-28.14l13.27-6.06c3.58-1.64,5.16-5.87,3.53-9.45l-0.32-0.7
			c-1.64-3.58-5.87-5.16-9.45-3.53l-13.29,6.07l-10.14-22.11l13.32-6.08c3.58-1.64,5.16-5.87,3.53-9.45l-0.32-0.7
			c-1.64-3.58-5.87-5.16-9.45-3.53l-13.39,6.12c-1.59-2.86-4.1-5.06-7.17-6.24l-40.75-15.74c-3.46-1.34-7.38-1.22-10.75,0.31
			l-5.74-12.51c-1.73-3.77-6.19-5.43-9.97-3.7h0c-3.77,1.73-5.43,6.19-3.7,9.97l5.74,12.51l-21.31,9.77l-5.83-12.71
			c-1.73-3.77-6.19-5.43-9.97-3.7c-3.77,1.73-5.43,6.19-3.7,9.97l5.83,12.71L193.6,65.15l-5.83-12.71c-1.73-3.77-6.19-5.43-9.97-3.7
			c-3.77,1.73-5.43,6.19-3.7,9.97l5.83,12.71L152.8,83.87l-5.83-12.71c-1.73-3.77-6.19-5.43-9.97-3.7c-3.77,1.73-5.43,6.19-3.7,9.97
			l5.83,12.71l-28.14,12.91l-5.74-12.51c-1.73-3.77-6.19-5.43-9.97-3.7l0,0c-3.77,1.73-5.43,6.19-3.7,9.97l5.74,12.51l-22.11,10.14
			l-5.74-12.51c-1.73-3.77-6.19-5.43-9.97-3.7c-3.77,1.73-5.43,6.19-3.7,9.97l5.75,12.55c-2.98,1.58-5.27,4.16-6.47,7.35
			l-15.76,41.74c-1.28,3.38-1.17,7.2,0.27,10.52l-12.52,5.72c-3.78,1.72-5.44,6.19-3.72,9.96c1.73,3.78,6.19,5.44,9.96,3.72
			l12.53-5.72l10.14,22.11l-12.56,5.74c-3.78,1.73-5.44,6.19-3.72,9.96h0c1.73,3.78,6.19,5.44,9.96,3.72l12.58-5.75l12.91,28.14
			l-13.34,6.09c-3.78,1.73-5.44,6.19-3.72,9.96l0,0c1.72,3.78,6.19,5.44,9.96,3.72l13.36-6.1l12.44,27.13l-12.49,5.7
			c-3.78,1.73-5.44,6.19-3.72,9.96h0c1.72,3.78,6.19,5.44,9.96,3.72l12.51-5.71L116.46,353l-12.57,5.74
			c-3.78,1.72-5.44,6.19-3.72,9.96c1.72,3.78,6.19,5.44,9.96,3.72l12.59-5.75l9.77,21.31l-12.83,5.86
			c-3.78,1.72-5.44,6.19-3.72,9.96c1.73,3.78,6.19,5.44,9.96,3.72l12.95-5.91c1.69,2.75,4.29,4.87,7.36,5.93l43.97,15.16
			c1.48,0.51,3.02,0.77,4.55,0.77c1.36,0,2.72-0.22,4.03-0.62l6.11,13.33c1.73,3.77,6.19,5.43,9.97,3.7
			c3.77-1.73,5.43-6.19,3.7-9.97l-6.06-13.2l22.11-10.14l6.06,13.2c1.73,3.77,6.19,5.43,9.97,3.7c3.77-1.73,5.43-6.19,3.7-9.97
			l-6.06-13.2l28.14-12.91l5.96,13c1.73,3.77,6.19,5.43,9.97,3.7c3.77-1.73,5.43-6.19,3.7-9.97l-5.96-13l27.14-12.44l5.96,13
			c1.73,3.77,6.19,5.43,9.97,3.7c3.77-1.73,5.43-6.19,3.7-9.97l-5.96-13l35.58-16.32l5.96,13c1.73,3.77,6.19,5.43,9.97,3.7
			c3.77-1.73,5.43-6.19,3.7-9.97l-5.96-13l21.31-9.77l6.06,13.2c1.73,3.77,6.19,5.43,9.97,3.7c3.77-1.73,5.43-6.19,3.7-9.97
			l-6.09-13.29c2.68-1.6,4.73-4.04,5.85-7.01l15.44-40.85c1.31-3.47,1.18-7.41-0.38-10.79l-0.26-0.57l13-5.94
			C452.32,256.9,453.9,252.66,452.26,249.08z M407.89,311.68l-213.13,97.77l-43.96-15.17l-18.2-39.68c-0.07-0.2-0.15-0.4-0.24-0.6
			c-0.1-0.21-0.2-0.41-0.31-0.61l-21.77-47.46c-0.11-0.41-0.24-0.82-0.43-1.21v0c-0.19-0.41-0.41-0.78-0.65-1.14l-37.02-80.71
			c-0.08-0.24-0.18-0.49-0.29-0.73v0c-0.11-0.25-0.24-0.48-0.37-0.71l-15.58-33.98c-0.1-0.38-0.23-0.75-0.4-1.12
			c-0.17-0.38-0.38-0.72-0.6-1.06l-2.52-5.5l15.71-41.68l5.01-2.3c0.38-0.11,0.75-0.23,1.12-0.4l0,0c0.37-0.17,0.71-0.37,1.03-0.59
			l33.61-15.42c0.38-0.11,0.77-0.24,1.14-0.41c0.38-0.17,0.72-0.38,1.05-0.6l164.52-75.47c0.43-0.11,0.85-0.25,1.26-0.44v0
			c0.41-0.19,0.8-0.42,1.16-0.67l5.5-2.52l40.75,15.74l98.99,215.85L407.89,311.68z"/>
	</g>
</g>
</svg>
